<svg width="35" height="51" viewBox="0 0 35 51" fill="none" xmlns="http://www.w3.org/2000/svg">
<g id="Group 18">
<circle id="Ellipse 4" cx="17.2401" cy="17.2398" r="10.1412" fill="white"/>
<path id="Vector" d="M16.1174 49.4674C15.0223 47.9782 13.9504 46.5238 12.919 45.0521C9.37301 40.0109 6.09352 34.8076 3.44559 29.2276C2.1477 26.4869 0.954103 23.694 0.374687 20.7098C-0.720408 15.1125 0.577483 10.0829 4.36686 5.80089C8.02298 1.68108 12.7047 -0.207889 18.1975 0.0180918C25.8632 0.336783 32.5554 6.1022 34.1141 13.6407C34.7514 16.7349 34.5428 19.7596 33.5926 22.7726C31.6863 28.764 28.7023 34.2166 25.2896 39.4431C22.8502 43.1747 20.1965 46.7672 17.6355 50.4177C17.5717 50.5046 17.508 50.5857 17.4211 50.6842C17.2936 50.8233 16.7142 50.2786 16.1174 49.4674ZM25.6662 17.494C25.8922 13.1308 22.2708 9.06313 17.9426 8.82556C12.948 8.54743 9.07751 12.0241 8.81098 17.0478C8.57922 21.411 12.2817 25.4612 16.7026 25.6698C21.5639 25.9016 25.417 22.3786 25.6662 17.494Z" fill="#F8B104"/>
</g>
</svg>
