<svg width="35" height="30" viewBox="0 0 35 30" fill="none" xmlns="http://www.w3.org/2000/svg">
<path id="Vector" d="M13.416 29.4299H2.748C1.232 29.4299 0 28.1979 0 26.6819V16.9819C0 12.3979 0.952 8.7819 2.86 6.1339C4.408 3.9859 6.852 2.0379 10.192 0.293902C11.536 -0.406098 13.244 0.197902 13.952 1.5379L14.88 3.2939C15.588 4.6339 15.04 6.2259 13.728 6.9899C12.16 7.9019 11.004 8.8099 10.256 9.7179C9.704 10.3899 9.276 11.1259 8.972 11.9219C8.468 13.2459 9.668 14.4179 11.184 14.4179H13.416C14.932 14.4179 16.164 15.6499 16.164 17.1659V26.6819C16.164 28.1979 14.932 29.4299 13.416 29.4299ZM32.252 29.4299H21.584C20.068 29.4299 18.836 28.1979 18.836 26.6819V16.9819C18.836 12.3979 19.788 8.7819 21.696 6.1339C23.244 3.9859 25.688 2.0379 29.028 0.293902C30.372 -0.406098 32.08 0.197902 32.788 1.5379L33.716 3.2939C34.424 4.6339 33.876 6.2259 32.564 6.9899C30.996 7.9019 29.84 8.8099 29.092 9.7179C28.54 10.3899 28.112 11.1259 27.808 11.9219C27.304 13.2459 28.504 14.4179 30.02 14.4179H32.252C33.768 14.4179 35 15.6499 35 17.1659V26.6819C35 28.1979 33.768 29.4299 32.252 29.4299Z" fill="#C1C7D1"/>
</svg>
